<?xml version="1.0" encoding="UTF-8" standalone="no"?>
<svg
   xmlns:svg="http://www.w3.org/2000/svg"
   xmlns="http://www.w3.org/2000/svg"
   version="1.0"
   width="45"
   height="145">

<defs>
	<!-- Colour Gradients. -->
	<linearGradient id="MB_GreenGradient" x1="1" y1="1" x2="0" y2="0">
		<stop offset="50%" stop-color="green" />
		<stop offset="100%" stop-color="white" />
	</linearGradient>
</defs>


<!-- This is a column gauge background. -->
<g fill="url(#MB_GreenGradient)">

	<!-- This adds the outer ring. -->
	<rect x="0" y="0" width="40" height="140" rx="5" fill="silver" stroke="black" 
		stroke-width="5px"/>
	<!-- This adds the inner background. -->
	<rect x="5" y="5" width="30" height="130" rx="5" stroke="black" 
		stroke-width="2px"/>

	<!-- These add the "tick" marks to the background. -->
	<g transform="translate(5,20)" stroke="white" stroke-width="2px">
		<line x1="0" y1="0" x2="30" y2="0"/>
		<line x1="0" y1="10" x2="30" y2="10"/>
		<line x1="0" y1="20" x2="30" y2="20"/>
		<line x1="0" y1="30" x2="30" y2="30"/>
		<line x1="0" y1="40" x2="30" y2="40"/>
		<line x1="0" y1="50" x2="30" y2="50"/>
		<line x1="0" y1="60" x2="30" y2="60"/>
		<line x1="0" y1="70" x2="30" y2="70"/>
		<line x1="0" y1="80" x2="30" y2="80"/>
		<line x1="0" y1="90" x2="30" y2="90"/>
		<line x1="0" y1="100" x2="30" y2="100"/>
	</g>
	<!-- This covers the inner part of the "tick" marks. -->
	<rect x="12" y="5" width="15" height="130" rx="0" stroke="none" 
		stroke-width="0px"/>

</g>

</svg>

