<?xml version="1.0" encoding="UTF-8" standalone="no"?>
<svg
   xmlns:svg="http://www.w3.org/2000/svg"
   xmlns="http://www.w3.org/2000/svg"
   version="1.0"
   width="110"
   height="110">

<defs>
	<!-- Colour gradients. -->
	<linearGradient id="MB_KhakiGradient" x1="1" y1="1" x2="0" y2="0">
		<stop offset="50%" stop-color="khaki" />
		<stop offset="100%" stop-color="white" />
	</linearGradient>
</defs>


<!-- This is a dial background. the first tick mark is at 30 degrees, and the last at 330. -->
<g fill="url(#MB_KhakiGradient)">

	<!-- This adds the outer ring. -->
	<circle cx="55px" cy="55px" r="55px" fill="silver" stroke="black" stroke-width="2px"/>
	<!-- This adds the outer part of the dial background. -->
	<circle cx="55px" cy="55px" r="50px" stroke="black" stroke-width="2px"/>
	<!-- These add the "tick" marks to the dial. -->
	<g stroke="white" stroke-width="4px">
		<line x1="55" y1="105" x2="55" y2="100"/>
		<line x1="55" y1="105" x2="55" y2="100" transform="rotate(30 55 55)"/>
		<line x1="55" y1="105" x2="55" y2="100" transform="rotate(60 55 55)"/>
		<line x1="55" y1="105" x2="55" y2="100" transform="rotate(90 55 55)"/>
		<line x1="55" y1="105" x2="55" y2="100" transform="rotate(120 55 55)"/>
		<line x1="55" y1="105" x2="55" y2="100" transform="rotate(150 55 55)"/>
		<line x1="55" y1="105" x2="55" y2="100" transform="rotate(180 55 55)"/>
		<line x1="55" y1="105" x2="55" y2="100" transform="rotate(210 55 55)"/>
		<line x1="55" y1="105" x2="55" y2="100" transform="rotate(240 55 55)"/>
		<line x1="55" y1="105" x2="55" y2="100" transform="rotate(270 55 55)"/>
		<line x1="55" y1="105" x2="55" y2="100" transform="rotate(300 55 55)"/>
		<line x1="55" y1="105" x2="55" y2="100" transform="rotate(330 55 55)"/>
	</g>

	<!-- This gives us a target to help align the pointer. -->
	<circle cx="55px" cy="55px" r="5px" stroke="black" stroke-width="1px"/>

</g>

</svg>

